<?xml version="1.0" standalone="no"?>
<svg viewBox="0 0 200 200" xmlns="http://www.w3.org/2000/svg">
  <path fill="#FF0066" d="M32.3,-58.4C43.9,-49.3,56.7,-44.7,66.7,-35.7C76.7,-26.7,84,-13.4,80.2,-2.2C76.4,9,61.7,18,53.2,29.7C44.7,41.4,42.6,55.8,34.8,61.5C27,67.3,13.5,64.5,3,59.3C-7.5,54.1,-15,46.6,-21.7,40.1C-28.3,33.7,-34.1,28.4,-39.5,21.9C-44.9,15.4,-49.8,7.7,-55.8,-3.5C-61.9,-14.7,-69.2,-29.4,-65.1,-38.2C-61.1,-46.9,-45.7,-49.7,-33,-58.1C-20.2,-66.5,-10.1,-80.4,0.1,-80.6C10.4,-80.9,20.8,-67.4,32.3,-58.4Z" transform="translate(100 100)" />
</svg>
