<svg width="547" height="568" viewBox="0 0 547 568" fill="none" xmlns="http://www.w3.org/2000/svg">
<path d="M365.591 86.7817C408.605 122.347 456.068 140.324 493.149 175.498C530.23 210.672 557.299 262.652 543.208 306.424C529.118 350.196 474.609 385.37 443.09 431.096C411.571 476.822 403.784 533.101 374.861 555.377C345.938 578.045 295.879 567.102 256.944 546.779C218.009 526.457 190.199 497.145 165.355 471.741C140.881 446.729 119.374 426.015 99.3506 400.612C79.3269 375.208 61.1573 345.115 38.9088 301.343C16.2895 257.571 -10.7795 200.12 4.42361 165.728C19.256 131.726 76.3605 120.783 123.453 87.9542C170.917 55.1251 208.368 0.800853 246.191 0.0192092C284.384 -1.15326 322.948 51.6077 365.591 86.7817Z" fill="url(#paint0_linear_152_9)"/>
<defs>
<linearGradient id="paint0_linear_152_9" x1="83.5" y1="100.5" x2="334.5" y2="501" gradientUnits="userSpaceOnUse">
<stop stop-color="#0D25FF" stop-opacity="0.29"/>
<stop offset="1" stop-color="#740091" stop-opacity="0.57"/>
</linearGradient>
</defs>
</svg>
